<svg xmlns="http://www.w3.org/2000/svg" xmlns:xlink="http://www.w3.org/1999/xlink" width="500" zoomAndPan="magnify" viewBox="0 0 375 374.999991" height="500" preserveAspectRatio="xMidYMid meet" version="1.0"><defs><g/><clipPath id="a0bede4ed7"><path d="M 176 27.050781 L 218 27.050781 L 218 212 L 176 212 Z M 176 27.050781 " clip-rule="nonzero"/></clipPath><clipPath id="a4ca9cac21"><path d="M 95.292969 97 L 278.960938 97 L 278.960938 260.527344 L 95.292969 260.527344 Z M 95.292969 97 " clip-rule="nonzero"/></clipPath></defs><g clip-path="url(#a0bede4ed7)"><path fill="#5d17d3" d="M 199.863281 56.050781 C 193.648438 56.050781 188.605469 50.980469 188.605469 44.730469 C 188.605469 38.476562 193.648438 33.410156 199.863281 33.410156 C 206.078125 33.410156 211.117188 38.476562 211.117188 44.730469 C 211.117188 50.980469 206.078125 56.050781 199.863281 56.050781 Z M 199.863281 27.046875 C 190.152344 27.046875 182.28125 34.964844 182.28125 44.730469 C 182.28125 53.152344 188.132812 60.199219 195.972656 61.976562 L 195.964844 61.976562 L 195.964844 171.589844 L 176.183594 191.445312 L 176.183594 207.753906 C 178.746094 209.238281 181.347656 210.597656 183.976562 211.820312 L 183.976562 194.695312 L 203.753906 174.84375 L 203.753906 61.980469 C 203.757812 61.980469 203.761719 61.976562 203.765625 61.976562 C 211.597656 60.191406 217.449219 53.148438 217.449219 44.730469 C 217.449219 34.964844 209.574219 27.046875 199.863281 27.046875 " fill-opacity="1" fill-rule="nonzero"/></g><path fill="#5d17d3" d="M 160.296875 158.160156 C 154.078125 158.160156 149.039062 153.09375 149.039062 146.839844 C 149.039062 140.589844 154.078125 135.519531 160.296875 135.519531 C 166.511719 135.519531 171.550781 140.589844 171.550781 146.839844 C 171.550781 153.09375 166.511719 158.160156 160.296875 158.160156 Z M 160.296875 129.15625 C 150.585938 129.15625 142.714844 137.074219 142.714844 146.839844 C 142.714844 155.261719 148.566406 162.308594 156.40625 164.089844 L 156.40625 192.746094 C 158.835938 195.128906 161.441406 197.417969 164.199219 199.59375 L 164.199219 164.085938 C 172.03125 162.300781 177.878906 155.257812 177.878906 146.839844 C 177.878906 137.074219 170.007812 129.15625 160.296875 129.15625 " fill-opacity="1" fill-rule="nonzero"/><path fill="#5d17d3" d="M 216.414062 93.113281 C 216.414062 86.863281 221.449219 81.792969 227.671875 81.792969 C 233.886719 81.792969 238.925781 86.863281 238.925781 93.113281 C 238.925781 99.367188 233.886719 104.433594 227.671875 104.433594 C 221.449219 104.433594 216.414062 99.367188 216.414062 93.113281 Z M 204 201.734375 L 204 218.421875 C 206.636719 218.929688 209.238281 219.28125 211.792969 219.472656 L 211.792969 204.984375 L 231.570312 185.128906 L 231.570312 110.363281 C 239.40625 108.578125 245.253906 101.535156 245.253906 93.113281 C 245.253906 83.347656 237.378906 75.429688 227.671875 75.429688 C 217.960938 75.429688 210.085938 83.347656 210.085938 93.113281 C 210.085938 101.539062 215.941406 108.582031 223.777344 110.363281 L 223.777344 181.878906 L 204 201.734375 " fill-opacity="1" fill-rule="nonzero"/><g clip-path="url(#a4ca9cac21)"><path fill="#5d17d3" d="M 269.324219 195.074219 L 278.941406 191.640625 C 276.894531 184.535156 273.777344 177.304688 269.679688 170.15625 L 256.898438 166.238281 C 251.460938 157.867188 244.511719 149.707031 236.234375 142.1875 L 236.234375 152.609375 C 252.992188 171.890625 258.675781 194.585938 248.550781 209.742188 C 235.117188 229.851562 198.949219 229.074219 167.765625 208.003906 C 136.585938 186.929688 122.195312 153.546875 135.628906 133.4375 C 145.53125 118.613281 167.792969 115.144531 191.300781 122.785156 L 191.300781 114.582031 C 184.96875 112.210938 178.667969 110.417969 172.519531 109.222656 L 164.082031 98.800781 C 155.953125 97.6875 148.121094 97.519531 140.808594 98.300781 L 141.28125 108.546875 C 132.554688 110.136719 124.832031 113.382812 118.660156 118.304688 L 105.902344 113.371094 C 103.785156 115.460938 101.871094 117.757812 100.191406 120.273438 C 98.511719 122.789062 97.117188 125.4375 95.992188 128.203125 L 105.363281 138.214844 C 103.164062 145.820312 103.09375 154.238281 104.929688 162.964844 L 95.316406 166.398438 C 97.363281 173.503906 100.476562 180.730469 104.574219 187.882812 L 117.355469 191.800781 C 123.082031 200.609375 130.472656 209.1875 139.332031 217.03125 L 138.5 226.824219 C 142.050781 229.6875 145.777344 232.449219 149.675781 235.085938 C 153.574219 237.722656 157.523438 240.144531 161.5 242.367188 L 170.203125 237.890625 C 180.769531 243.175781 191.460938 246.816406 201.734375 248.816406 L 210.171875 259.238281 C 218.304688 260.351562 226.132812 260.519531 233.449219 259.738281 L 232.976562 249.488281 C 241.703125 247.898438 249.421875 244.652344 255.59375 239.730469 L 268.355469 244.667969 C 270.472656 242.578125 272.386719 240.28125 274.066406 237.765625 C 275.742188 235.25 277.136719 232.597656 278.261719 229.835938 L 268.890625 219.824219 C 271.09375 212.21875 271.160156 203.800781 269.324219 195.074219 " fill-opacity="1" fill-rule="nonzero"/></g><g fill="#000000" fill-opacity="1"><g transform="translate(48.464634, 321.23239)"><g><path d="M 25.191406 0 C 35.871094 0 41.964844 -8.105469 41.964844 -16.332031 C 41.964844 -27.390625 33.734375 -33.734375 24.625 -33.734375 C 22.050781 -33.734375 19.789062 -33.355469 17.085938 -32.351562 L 17.085938 -42.84375 L 4.019531 -42.84375 L 4.019531 0 Z M 17.085938 -22.425781 C 18.78125 -22.929688 19.851562 -23.179688 21.609375 -23.179688 C 26.070312 -23.179688 28.898438 -20.480469 28.898438 -16.835938 C 28.898438 -13.003906 25.945312 -10.554688 21.234375 -10.554688 C 20.039062 -10.554688 18.847656 -10.679688 17.085938 -10.992188 Z M 17.085938 -22.425781 "/></g></g></g><g fill="#5d17d3" fill-opacity="1"><g transform="translate(92.925569, 321.23239)"><g><path d="M 20.289062 -42.84375 L 0.753906 0 L 15.640625 0 L 18.46875 -6.972656 L 37.816406 -6.972656 L 40.644531 0 L 55.53125 0 L 35.996094 -42.84375 Z M 28.144531 -31.660156 L 34.675781 -14.699219 L 21.546875 -14.699219 Z M 28.144531 -31.660156 "/></g></g></g><g fill="#5d17d3" fill-opacity="1"><g transform="translate(149.205572, 321.23239)"><g><path d="M 4.585938 -42.84375 L 4.585938 0 L 19.601562 0 L 19.601562 -42.84375 Z M 4.585938 -42.84375 "/></g></g></g><g fill="#000000" fill-opacity="1"><g transform="translate(173.386501, 321.23239)"><g><path d="M 38.949219 -22.113281 C 38.949219 -29.023438 35.054688 -33.734375 27.578125 -33.734375 C 23.496094 -33.734375 20.480469 -32.351562 16.898438 -28.835938 L 16.898438 -33.167969 L 3.832031 -33.167969 L 3.832031 0 L 16.898438 0 L 16.898438 -19.410156 C 18.34375 -21.863281 20.039062 -22.992188 22.113281 -22.992188 C 24.6875 -22.992188 25.882812 -21.421875 25.882812 -18.34375 L 25.882812 0 L 38.949219 0 Z M 38.949219 -22.113281 "/></g></g></g><g fill="#000000" fill-opacity="1"><g transform="translate(215.910569, 321.23239)"><g><path d="M 18.15625 14.511719 C 29.964844 14.511719 35.871094 9.546875 35.871094 3.769531 C 35.871094 -0.878906 32.226562 -4.460938 25.566406 -5.464844 C 23.683594 -5.78125 22.238281 -5.96875 21.421875 -6.34375 C 20.730469 -6.660156 20.417969 -7.097656 20.417969 -7.601562 C 20.417969 -8.730469 21.109375 -9.046875 23.683594 -9.421875 C 29.335938 -10.300781 33.984375 -14.386719 33.984375 -20.226562 C 33.984375 -22.929688 33.292969 -24.6875 31.976562 -26.636719 L 36.9375 -26.636719 L 36.9375 -33.734375 L 20.792969 -33.734375 C 7.851562 -33.734375 3.265625 -26.445312 3.265625 -20.605469 C 3.265625 -15.832031 5.714844 -12 11.308594 -9.863281 C 8.792969 -8.921875 7.414062 -7.351562 7.414062 -5.339844 C 7.414062 -3.707031 8.230469 -2.261719 10.175781 -1.445312 L 10.175781 -1.320312 C 5.089844 -0.628906 1.949219 2.574219 1.949219 6.09375 C 1.949219 11.683594 7.414062 14.511719 18.15625 14.511719 Z M 13.191406 -20.792969 C 13.191406 -23.558594 15.515625 -25.628906 18.53125 -25.628906 C 21.796875 -25.628906 24.058594 -23.683594 24.058594 -20.917969 C 24.058594 -18.15625 21.671875 -16.082031 18.53125 -16.082031 C 15.515625 -16.082031 13.191406 -18.15625 13.191406 -20.792969 Z M 12.375 5.152344 C 12.375 2.199219 15.265625 0.691406 18.59375 0.691406 C 22.742188 0.691406 25.378906 2.574219 25.378906 5.339844 C 25.378906 8.039062 23.117188 9.421875 18.65625 9.421875 C 14.449219 9.421875 12.375 8.039062 12.375 5.152344 Z M 12.375 5.152344 "/></g></g></g><g fill="#000000" fill-opacity="1"><g transform="translate(253.849322, 321.23239)"><g><path d="M 13.882812 -19.035156 L 13.882812 -20.039062 C 13.882812 -24.4375 16.332031 -26.445312 19.601562 -26.445312 C 23.496094 -26.445312 25.253906 -23.746094 25.316406 -19.035156 Z M 36.246094 -16.773438 C 36.246094 -26.824219 28.773438 -33.734375 19.410156 -33.734375 C 9.863281 -33.734375 2.324219 -26.574219 2.324219 -16.773438 C 2.324219 -7.097656 9.613281 0.566406 21.171875 0.566406 C 27.328125 0.566406 32.667969 -1.507812 36.5 -5.90625 L 34.109375 -11.308594 C 30.277344 -8.605469 26.886719 -7.539062 23.496094 -7.539062 C 18.65625 -7.539062 14.511719 -10.554688 14.386719 -14.132812 L 36.058594 -14.132812 C 36.246094 -15.140625 36.246094 -15.832031 36.246094 -16.773438 Z M 36.246094 -16.773438 "/></g></g></g><g fill="#000000" fill-opacity="1"><g transform="translate(292.479011, 321.23239)"><g><path d="M 34.488281 -31.160156 C 31.410156 -32.917969 28.960938 -33.734375 26.445312 -33.734375 C 21.863281 -33.734375 18.15625 -30.53125 15.832031 -24.3125 L 15.703125 -24.3125 L 15.703125 -33.167969 L 3.894531 -33.167969 L 3.894531 0 L 16.960938 0 L 16.960938 -13.820312 C 17.777344 -18.03125 20.164062 -20.730469 23.117188 -20.730469 C 24.8125 -20.730469 26.636719 -19.976562 28.707031 -17.964844 Z M 34.488281 -31.160156 "/></g></g></g></svg>